<svg xmlns="http://www.w3.org/2000/svg" width="1600" height="760" viewBox="0 0 1600 760" role="img" aria-labelledby="title desc">
  <title id="title">Harwell Business Insights</title>
  <desc id="desc">Portfolio cover inspired by the Harwell homecare analytics dashboard.</desc>
  <defs>
    <linearGradient id="bg" x1="0" y1="0" x2="1" y2="1">
      <stop offset="0" stop-color="#fffdf8"/>
      <stop offset="1" stop-color="#f7f8ff"/>
    </linearGradient>
    <linearGradient id="pink" x1="0" y1="0" x2="1" y2="0">
      <stop offset="0" stop-color="#d81b76"/>
      <stop offset="1" stop-color="#ee4a96"/>
    </linearGradient>
    <filter id="shadow" x="-20%" y="-20%" width="140%" height="140%">
      <feDropShadow dx="0" dy="8" stdDeviation="12" flood-color="#121b56" flood-opacity="0.12"/>
    </filter>
  </defs>

  <rect width="1600" height="760" rx="26" fill="url(#bg)"/>

  <g transform="translate(52 54)">
    <rect x="0" y="0" width="340" height="652" rx="24" fill="#ffffff" filter="url(#shadow)"/>
    <circle cx="54" cy="58" r="28" fill="#11195c"/>
    <path d="M38 60 L54 44 L70 60 V77 H59 V64 H49 V77 H38Z" fill="#ffffff"/>
    <circle cx="54" cy="59" r="7" fill="#e52d84"/>

    <text x="96" y="47" font-family="Arial, Helvetica, sans-serif" font-size="30" font-weight="700" fill="#11195c">HARWELL</text>
    <text x="96" y="76" font-family="Arial, Helvetica, sans-serif" font-size="20" font-weight="700" letter-spacing="5" fill="#e52d84">HOME CARE</text>

    <text x="0" y="162" font-family="Arial, Helvetica, sans-serif" font-size="58" font-weight="800" fill="#11195c">HARWELL</text>
    <text x="0" y="216" font-family="Arial, Helvetica, sans-serif" font-size="42" font-weight="800" fill="#d81b76">BUSINESS INSIGHTS</text>
    <text x="2" y="256" font-family="Arial, Helvetica, sans-serif" font-size="24" fill="#27305f">Data. Insights. Impact.</text>
    <rect x="0" y="278" width="250" height="4" rx="2" fill="url(#pink)"/>

    <text x="0" y="326" font-family="Arial, Helvetica, sans-serif" font-size="18" fill="#2a315f">End-to-end analytics for care</text>
    <text x="0" y="351" font-family="Arial, Helvetica, sans-serif" font-size="18" fill="#2a315f">operations, performance, referrals,</text>
    <text x="0" y="376" font-family="Arial, Helvetica, sans-serif" font-size="18" fill="#2a315f">utilisation and compliance reviews.</text>

    <rect x="0" y="420" width="286" height="44" rx="10" fill="#11195c"/>
    <text x="143" y="449" text-anchor="middle" font-family="Arial, Helvetica, sans-serif" font-size="18" font-weight="700" fill="#ffffff">PROJECT HIGHLIGHTS</text>

    <g font-family="Arial, Helvetica, sans-serif" font-size="17" fill="#222b55">
      <circle cx="16" cy="503" r="7" fill="#e52d84"/><text x="36" y="509">Automated data pipelines</text>
      <circle cx="16" cy="543" r="7" fill="#e52d84"/><text x="36" y="549">Bronze / Silver / Gold lakehouse</text>
      <circle cx="16" cy="583" r="7" fill="#e52d84"/><text x="36" y="589">Power BI operational reporting</text>
      <circle cx="16" cy="623" r="7" fill="#e52d84"/><text x="36" y="629">Data quality &amp; governance</text>
    </g>
  </g>

  <g transform="translate(430 54)">
    <g filter="url(#shadow)">
      <rect x="0" y="0" width="250" height="84" rx="16" fill="#ffffff"/>
      <rect x="268" y="0" width="250" height="84" rx="16" fill="#ffffff"/>
      <rect x="536" y="0" width="250" height="84" rx="16" fill="#ffffff"/>
      <rect x="804" y="0" width="250" height="84" rx="16" fill="#ffffff"/>
    </g>
    <rect x="0" y="80" width="250" height="4" rx="2" fill="#e52d84"/>
    <rect x="268" y="80" width="250" height="4" rx="2" fill="#f2b632"/>
    <rect x="536" y="80" width="250" height="4" rx="2" fill="#19a77a"/>
    <rect x="804" y="80" width="250" height="4" rx="2" fill="#5b46d8"/>
    <g font-family="Arial, Helvetica, sans-serif" text-anchor="middle">
      <text x="125" y="28" font-size="14" font-weight="700" fill="#48507b">ACTIVE CLIENTS</text><text x="125" y="62" font-size="31" font-weight="800" fill="#11195c">3.2K</text>
      <text x="393" y="28" font-size="14" font-weight="700" fill="#48507b">CARE HOURS</text><text x="393" y="62" font-size="31" font-weight="800" fill="#e52d84">33K</text>
      <text x="661" y="28" font-size="14" font-weight="700" fill="#48507b">REVENUE</text><text x="661" y="62" font-size="31" font-weight="800" fill="#168a69">2.6M</text>
      <text x="929" y="28" font-size="14" font-weight="700" fill="#48507b">SERVICE MARGIN</text><text x="929" y="62" font-size="31" font-weight="800" fill="#5b46d8">23.8%</text>
    </g>

    <g transform="translate(0 116)" filter="url(#shadow)">
      <rect width="650" height="246" rx="18" fill="#ffffff"/>
      <rect width="650" height="42" rx="18" fill="#11195c"/>
      <rect y="26" width="650" height="16" fill="#11195c"/>
      <text x="325" y="28" text-anchor="middle" font-family="Arial, Helvetica, sans-serif" font-size="18" font-weight="700" fill="#ffffff">Client Growth &amp; Care Hours Trend</text>
      <line x1="54" y1="206" x2="610" y2="206" stroke="#d7d9e8"/>
      <line x1="54" y1="80" x2="54" y2="206" stroke="#d7d9e8"/>
      <g fill="#ef7a32">
        <rect x="76" y="154" width="32" height="52"/><rect x="122" y="147" width="32" height="59"/><rect x="168" y="140" width="32" height="66"/><rect x="214" y="132" width="32" height="74"/><rect x="260" y="124" width="32" height="82"/><rect x="306" y="116" width="32" height="90"/><rect x="352" y="106" width="32" height="100"/><rect x="398" y="96" width="32" height="110"/><rect x="444" y="86" width="32" height="120"/><rect x="490" y="74" width="32" height="132"/><rect x="536" y="61" width="32" height="145"/>
      </g>
      <polyline points="92,164 138,158 184,150 230,142 276,132 322,123 368,112 414,101 460,90 506,78 552,66" fill="none" stroke="#18a989" stroke-width="5"/>
      <g fill="#18a989"><circle cx="92" cy="164" r="5"/><circle cx="184" cy="150" r="5"/><circle cx="276" cy="132" r="5"/><circle cx="368" cy="112" r="5"/><circle cx="460" cy="90" r="5"/><circle cx="552" cy="66" r="5"/></g>
    </g>

    <g transform="translate(674 116)" filter="url(#shadow)">
      <rect width="380" height="246" rx="18" fill="#ffffff"/>
      <rect width="380" height="42" rx="18" fill="#11195c"/>
      <rect y="26" width="380" height="16" fill="#11195c"/>
      <text x="190" y="28" text-anchor="middle" font-family="Arial, Helvetica, sans-serif" font-size="18" font-weight="700" fill="#ffffff">Gross Margin %</text>
      <line x1="42" y1="206" x2="340" y2="206" stroke="#d7d9e8"/>
      <line x1="42" y1="76" x2="42" y2="206" stroke="#d7d9e8"/>
      <polyline points="54,126 82,174 110,142 138,131 166,118 194,104 222,88 250,72 278,96 306,79 334,62" fill="none" stroke="#75b4e8" stroke-width="5"/>
      <g fill="#75b4e8"><circle cx="54" cy="126" r="5"/><circle cx="82" cy="174" r="5"/><circle cx="138" cy="131" r="5"/><circle cx="194" cy="104" r="5"/><circle cx="250" cy="72" r="5"/><circle cx="334" cy="62" r="5"/></g>
    </g>

    <g transform="translate(0 386)" filter="url(#shadow)">
      <rect width="510" height="228" rx="18" fill="#ffffff"/>
      <rect width="510" height="42" rx="18" fill="#11195c"/>
      <rect y="26" width="510" height="16" fill="#11195c"/>
      <text x="255" y="28" text-anchor="middle" font-family="Arial, Helvetica, sans-serif" font-size="18" font-weight="700" fill="#ffffff">Archived Clients &amp; Referrals</text>
      <g fill="#208b1e"><rect x="52" y="132" width="30" height="62"/><rect x="96" y="102" width="30" height="92"/><rect x="140" y="118" width="30" height="76"/><rect x="184" y="142" width="30" height="52"/><rect x="228" y="124" width="30" height="70"/><rect x="272" y="110" width="30" height="84"/><rect x="316" y="136" width="30" height="58"/><rect x="360" y="116" width="30" height="78"/><rect x="404" y="126" width="30" height="68"/></g>
      <line x1="34" y1="194" x2="470" y2="194" stroke="#d7d9e8"/>
    </g>

    <g transform="translate(534 386)" filter="url(#shadow)">
      <rect width="520" height="228" rx="18" fill="#ffffff"/>
      <rect width="520" height="42" rx="18" fill="#11195c"/>
      <rect y="26" width="520" height="16" fill="#11195c"/>
      <text x="260" y="28" text-anchor="middle" font-family="Arial, Helvetica, sans-serif" font-size="18" font-weight="700" fill="#ffffff">28-day / 90-day Review Compliance</text>
      <rect x="36" y="72" width="448" height="26" fill="#e52d84"/>
      <g font-family="Arial, Helvetica, sans-serif" font-size="13" fill="#333a63">
        <text x="52" y="119">Personal Care</text><text x="396" y="119">94.8%</text>
        <text x="52" y="147">Nursing</text><text x="396" y="147">95.2%</text>
        <text x="52" y="175">Allied Health</text><text x="396" y="175">93.8%</text>
      </g>
      <g stroke="#e3e4ee"><line x1="36" y1="126" x2="484" y2="126"/><line x1="36" y1="154" x2="484" y2="154"/><line x1="36" y1="182" x2="484" y2="182"/></g>
    </g>
  </g>

  <g transform="translate(430 690)" font-family="Arial, Helvetica, sans-serif" font-size="15" fill="#5d6382">
    <text x="0" y="0">Azure · ADLS Gen2 · Synapse · Power BI · Supabase · n8n · Xero · Employment Hero</text>
  </g>
</svg>